<svg xmlns="http://www.w3.org/2000/svg" width="1024" height="1024" viewBox="0 0 1024 1024" fill="none">
  <defs>
    <linearGradient id="bg" x1="0" y1="0" x2="100%" y2="100%">
      <stop offset="0%" stop-color="#0f172a" />
      <stop offset="50%" stop-color="#1e2b4f" />
      <stop offset="100%" stop-color="#38f9d7" />
    </linearGradient>
    <linearGradient id="accent" x1="0" y1="0" x2="0" y2="1">
      <stop offset="0%" stop-color="#c7f8ff"/>
      <stop offset="100%" stop-color="#38f9d7"/>
    </linearGradient>
    <filter id="shadow" x="-20%" y="-20%" width="140%" height="140%">
      <feDropShadow dx="0" dy="24" stdDeviation="32" flood-color="#000" flood-opacity="0.35" />
    </filter>
  </defs>
  <rect x="72" y="72" width="880" height="880" rx="220" fill="url(#bg)" />
  <g filter="url(#shadow)">
    <rect x="192" y="192" width="640" height="640" rx="140" fill="#0b1224" stroke="#7fffe3" stroke-width="18" opacity="0.9" />
    <rect x="252" y="252" width="520" height="520" rx="120" fill="url(#accent)" opacity="0.12" />
    <path d="M338 360h348c22 0 40 18 40 40v224c0 22-18 40-40 40H338c-22 0-40-18-40-40V400c0-22 18-40 40-40z" stroke="#e8fbff" stroke-width="26" stroke-linecap="round" stroke-linejoin="round"/>
    <path d="M404 448h216" stroke="#e8fbff" stroke-width="30" stroke-linecap="round" />
    <path d="M404 528h156" stroke="#e8fbff" stroke-width="30" stroke-linecap="round" opacity="0.9" />
    <path d="M404 608h96" stroke="#e8fbff" stroke-width="30" stroke-linecap="round" opacity="0.7" />
    <rect x="646" y="448" width="68" height="68" rx="20" fill="#0b1224" stroke="#e8fbff" stroke-width="22" />
    <rect x="646" y="560" width="68" height="68" rx="20" fill="#0b1224" stroke="#e8fbff" stroke-width="22" opacity="0.8" />
  </g>
</svg>
